HIERARCHY
ROOT mixamorig:Hips
{
	OFFSET -0.000008 104.274872 1.554316
	CHANNELS 6 Xposition Yposition Zposition Xrotation Yrotation Zrotation
	JOINT mixamorig:Spine
	{
		OFFSET -0.000005 10.181595 0.131519
		CHANNELS 6 Xposition Yposition Zposition Xrotation Yrotation Zrotation
		JOINT mixamorig:Spine1
		{
			OFFSET -0.000000 9.893959 -1.470707
			CHANNELS 6 Xposition Yposition Zposition Xrotation Yrotation Zrotation
			JOINT mixamorig:Spine2
			{
				OFFSET -0.000000 9.220757 -1.370641
				CHANNELS 6 Xposition Yposition Zposition Xrotation Yrotation Zrotation
				JOINT mixamorig:Neck
				{
					OFFSET 0.000001 16.740417 -2.049036
					CHANNELS 6 Xposition Yposition Zposition Xrotation Yrotation Zrotation
					JOINT mixamorig:Head
					{
						OFFSET 0.000000 9.617874 1.685006
						CHANNELS 6 Xposition Yposition Zposition Xrotation Yrotation Zrotation
						JOINT mixamorig:HeadTop_End
						{
							OFFSET 0.000002 22.037354 7.501101
							CHANNELS 6 Xposition Yposition Zposition Xrotation Yrotation Zrotation
							End Site
							{
								OFFSET 0.000168 2310.654297 -282.823242
							}
						}
					}
				}
				JOINT mixamorig:RightShoulder
				{
					OFFSET -4.569970 11.014908 -2.160885
					CHANNELS 6 Xposition Yposition Zposition Xrotation Yrotation Zrotation
					JOINT mixamorig:RightArm
					{
						OFFSET -10.592851 -0.524811 -2.232101
						CHANNELS 6 Xposition Yposition Zposition Xrotation Yrotation Zrotation
						JOINT mixamorig:RightForeArm
						{
							OFFSET -27.841511 0.000031 -0.000004
							CHANNELS 6 Xposition Yposition Zposition Xrotation Yrotation Zrotation
							JOINT mixamorig:RightHand
							{
								OFFSET -28.328831 -0.000015 0.000015
								CHANNELS 6 Xposition Yposition Zposition Xrotation Yrotation Zrotation
								JOINT mixamorig:RightHandThumb1
								{
									OFFSET -2.464806 -1.573990 2.681852
									CHANNELS 6 Xposition Yposition Zposition Xrotation Yrotation Zrotation
									JOINT mixamorig:RightHandThumb2
									{
										OFFSET -3.215179 -1.872803 1.924282
										CHANNELS 6 Xposition Yposition Zposition Xrotation Yrotation Zrotation
										JOINT mixamorig:RightHandThumb3
										{
											OFFSET -2.654831 -1.527969 1.512609
											CHANNELS 6 Xposition Yposition Zposition Xrotation Yrotation Zrotation
											JOINT mixamorig:RightHandThumb4
											{
												OFFSET -2.018814 -1.152008 1.108052
												CHANNELS 6 Xposition Yposition Zposition Xrotation Yrotation Zrotation
												End Site
												{
													OFFSET -188.809540 -114.533607 132.431396
												}
											}
										}
									}
								}
								JOINT mixamorig:RightHandIndex1
								{
									OFFSET -9.108284 -0.517868 2.259835
									CHANNELS 6 Xposition Yposition Zposition Xrotation Yrotation Zrotation
									JOINT mixamorig:RightHandIndex2
									{
										OFFSET -3.699989 0.000000 0.001215
										CHANNELS 6 Xposition Yposition Zposition Xrotation Yrotation Zrotation
										JOINT mixamorig:RightHandIndex3
										{
											OFFSET -2.850006 0.000031 -0.000522
											CHANNELS 6 Xposition Yposition Zposition Xrotation Yrotation Zrotation
											JOINT mixamorig:RightHandIndex4
											{
												OFFSET -2.772186 -0.000015 -0.000020
												CHANNELS 6 Xposition Yposition Zposition Xrotation Yrotation Zrotation
												End Site
												{
													OFFSET -277.218445 0.000000 -0.050231
												}
											}
										}
									}
								}
								JOINT mixamorig:RightHandMiddle1
								{
									OFFSET -9.532516 -0.000031 -0.000023
									CHANNELS 6 Xposition Yposition Zposition Xrotation Yrotation Zrotation
									JOINT mixamorig:RightHandMiddle2
									{
										OFFSET -3.700005 -0.000015 0.003713
										CHANNELS 6 Xposition Yposition Zposition Xrotation Yrotation Zrotation
										JOINT mixamorig:RightHandMiddle3
										{
											OFFSET -2.949974 0.000015 -0.002054
											CHANNELS 6 Xposition Yposition Zposition Xrotation Yrotation Zrotation
											JOINT mixamorig:RightHandMiddle4
											{
												OFFSET -2.946640 0.000000 -0.000156
												CHANNELS 6 Xposition Yposition Zposition Xrotation Yrotation Zrotation
												End Site
												{
													OFFSET -294.664337 0.000000 -0.113670
												}
											}
										}
									}
								}
								JOINT mixamorig:RightHandRing1
								{
									OFFSET -9.103600 -0.043076 -1.865134
									CHANNELS 6 Xposition Yposition Zposition Xrotation Yrotation Zrotation
									JOINT mixamorig:RightHandRing2
									{
										OFFSET -3.379288 0.000000 -0.001055
										CHANNELS 6 Xposition Yposition Zposition Xrotation Yrotation Zrotation
										JOINT mixamorig:RightHandRing3
										{
											OFFSET -2.889687 -0.000015 0.000379
											CHANNELS 6 Xposition Yposition Zposition Xrotation Yrotation Zrotation
											JOINT mixamorig:RightHandRing4
											{
												OFFSET -2.638809 -0.000015 0.000941
												CHANNELS 6 Xposition Yposition Zposition Xrotation Yrotation Zrotation
												End Site
												{
													OFFSET -263.880371 0.000000 0.516020
												}
											}
										}
									}
								}
								JOINT mixamorig:RightHandPinky1
								{
									OFFSET -8.076683 -0.486710 -3.806280
									CHANNELS 6 Xposition Yposition Zposition Xrotation Yrotation Zrotation
									JOINT mixamorig:RightHandPinky2
									{
										OFFSET -3.600014 -0.000015 -0.003747
										CHANNELS 6 Xposition Yposition Zposition Xrotation Yrotation Zrotation
										JOINT mixamorig:RightHandPinky3
										{
											OFFSET -2.099983 0.000000 -0.005739
											CHANNELS 6 Xposition Yposition Zposition Xrotation Yrotation Zrotation
											JOINT mixamorig:RightHandPinky4
											{
												OFFSET -2.115768 -0.000031 -0.003680
												CHANNELS 6 Xposition Yposition Zposition Xrotation Yrotation Zrotation
												End Site
												{
													OFFSET -211.577087 0.000000 -0.350686
												}
											}
										}
									}
								}
							}
						}
					}
				}
				JOINT mixamorig:LeftShoulder
				{
					OFFSET 4.570447 11.014725 -2.160855
					CHANNELS 6 Xposition Yposition Zposition Xrotation Yrotation Zrotation
					JOINT mixamorig:LeftArm
					{
						OFFSET 10.592371 -0.524597 -2.232119
						CHANNELS 6 Xposition Yposition Zposition Xrotation Yrotation Zrotation
						JOINT mixamorig:LeftForeArm
						{
							OFFSET 27.841532 -0.000031 0.000026
							CHANNELS 6 Xposition Yposition Zposition Xrotation Yrotation Zrotation
							JOINT mixamorig:LeftHand
							{
								OFFSET 28.328846 -0.000061 0.000022
								CHANNELS 6 Xposition Yposition Zposition Xrotation Yrotation Zrotation
								JOINT mixamorig:LeftHandThumb1
								{
									OFFSET 2.466141 -1.576172 2.681732
									CHANNELS 6 Xposition Yposition Zposition Xrotation Yrotation Zrotation
									JOINT mixamorig:LeftHandThumb2
									{
										OFFSET 3.217812 -1.872070 1.916482
										CHANNELS 6 Xposition Yposition Zposition Xrotation Yrotation Zrotation
										JOINT mixamorig:LeftHandThumb3
										{
											OFFSET 2.656029 -1.528778 1.514513
											CHANNELS 6 Xposition Yposition Zposition Xrotation Yrotation Zrotation
											JOINT mixamorig:LeftHandThumb4
											{
												OFFSET 2.020889 -1.154053 1.115139
												CHANNELS 6 Xposition Yposition Zposition Xrotation Yrotation Zrotation
												End Site
												{
													OFFSET 190.885437 -115.081749 130.048782
												}
											}
										}
									}
								}
								JOINT mixamorig:LeftHandIndex1
								{
									OFFSET 9.109314 -0.518021 2.259871
									CHANNELS 6 Xposition Yposition Zposition Xrotation Yrotation Zrotation
									JOINT mixamorig:LeftHandIndex2
									{
										OFFSET 3.699989 0.000000 -0.000322
										CHANNELS 6 Xposition Yposition Zposition Xrotation Yrotation Zrotation
										JOINT mixamorig:LeftHandIndex3
										{
											OFFSET 2.850006 0.000000 0.000352
											CHANNELS 6 Xposition Yposition Zposition Xrotation Yrotation Zrotation
											JOINT mixamorig:LeftHandIndex4
											{
												OFFSET 2.774864 -0.000031 -0.000027
												CHANNELS 6 Xposition Yposition Zposition Xrotation Yrotation Zrotation
												End Site
												{
													OFFSET 277.486267 0.000000 -0.009857
												}
											}
										}
									}
								}
								JOINT mixamorig:LeftHandMiddle1
								{
									OFFSET 9.533394 0.000061 0.000044
									CHANNELS 6 Xposition Yposition Zposition Xrotation Yrotation Zrotation
									JOINT mixamorig:LeftHandMiddle2
									{
										OFFSET 3.699989 -0.000015 -0.000231
										CHANNELS 6 Xposition Yposition Zposition Xrotation Yrotation Zrotation
										JOINT mixamorig:LeftHandMiddle3
										{
											OFFSET 2.949997 -0.000015 -0.000059
											CHANNELS 6 Xposition Yposition Zposition Xrotation Yrotation Zrotation
											JOINT mixamorig:LeftHandMiddle4
											{
												OFFSET 2.952896 0.000031 0.000063
												CHANNELS 6 Xposition Yposition Zposition Xrotation Yrotation Zrotation
												End Site
												{
													OFFSET 295.289337 0.000000 0.022810
												}
											}
										}
									}
								}
								JOINT mixamorig:LeftHandRing1
								{
									OFFSET 9.104523 -0.042999 -1.865074
									CHANNELS 6 Xposition Yposition Zposition Xrotation Yrotation Zrotation
									JOINT mixamorig:LeftHandRing2
									{
										OFFSET 3.150009 -0.000031 0.000043
										CHANNELS 6 Xposition Yposition Zposition Xrotation Yrotation Zrotation
										JOINT mixamorig:LeftHandRing3
										{
											OFFSET 2.949982 -0.000015 0.000040
											CHANNELS 6 Xposition Yposition Zposition Xrotation Yrotation Zrotation
											JOINT mixamorig:LeftHandRing4
											{
												OFFSET 2.644348 0.000000 0.000057
												CHANNELS 6 Xposition Yposition Zposition Xrotation Yrotation Zrotation
												End Site
												{
													OFFSET 264.434631 0.000000 0.012105
												}
											}
										}
									}
								}
								JOINT mixamorig:LeftHandPinky1
								{
									OFFSET 8.077789 -0.486847 -3.806259
									CHANNELS 6 Xposition Yposition Zposition Xrotation Yrotation Zrotation
									JOINT mixamorig:LeftHandPinky2
									{
										OFFSET 3.599953 0.000031 0.014727
										CHANNELS 6 Xposition Yposition Zposition Xrotation Yrotation Zrotation
										JOINT mixamorig:LeftHandPinky3
										{
											OFFSET 2.100021 0.000015 0.007705
											CHANNELS 6 Xposition Yposition Zposition Xrotation Yrotation Zrotation
											JOINT mixamorig:LeftHandPinky4
											{
												OFFSET 2.125504 0.000031 0.007517
												CHANNELS 6 Xposition Yposition Zposition Xrotation Yrotation Zrotation
												End Site
												{
													OFFSET 212.550781 0.000000 0.625752
												}
											}
										}
									}
								}
							}
						}
					}
				}
			}
		}
	}
	JOINT mixamorig:RightUpLeg
	{
		OFFSET -8.207787 -6.751648 -1.599560
		CHANNELS 6 Xposition Yposition Zposition Xrotation Yrotation Zrotation
		JOINT mixamorig:RightLeg
		{
			OFFSET -0.000002 -44.370117 0.345942
			CHANNELS 6 Xposition Yposition Zposition Xrotation Yrotation Zrotation
			JOINT mixamorig:RightFoot
			{
				OFFSET 0.000003 -44.423679 -3.043532
				CHANNELS 6 Xposition Yposition Zposition Xrotation Yrotation Zrotation
				JOINT mixamorig:RightToeBase
				{
					OFFSET -0.000002 -8.728671 10.710558
					CHANNELS 6 Xposition Yposition Zposition Xrotation Yrotation Zrotation
					JOINT mixamorig:RightToe_End
					{
						OFFSET -0.000001 -0.000679 9.278119
						CHANNELS 6 Xposition Yposition Zposition Xrotation Yrotation Zrotation
						End Site
						{
							OFFSET 0.000000 -0.067690 927.812134
						}
					}
				}
			}
		}
	}
	JOINT mixamorig:LeftUpLeg
	{
		OFFSET 8.207793 -6.751686 -1.599556
		CHANNELS 6 Xposition Yposition Zposition Xrotation Yrotation Zrotation
		JOINT mixamorig:LeftLeg
		{
			OFFSET -0.000004 -44.370014 0.346954
			CHANNELS 6 Xposition Yposition Zposition Xrotation Yrotation Zrotation
			JOINT mixamorig:LeftFoot
			{
				OFFSET -0.000001 -44.423672 -3.044401
				CHANNELS 6 Xposition Yposition Zposition Xrotation Yrotation Zrotation
				JOINT mixamorig:LeftToeBase
				{
					OFFSET -0.000002 -8.728669 10.710558
					CHANNELS 6 Xposition Yposition Zposition Xrotation Yrotation Zrotation
					JOINT mixamorig:LeftToe_End
					{
						OFFSET -0.000003 -0.000679 9.278133
						CHANNELS 6 Xposition Yposition Zposition Xrotation Yrotation Zrotation
						End Site
						{
							OFFSET 0.000000 -0.068021 927.813477
						}
					}
				}
			}
		}
	}
}
MOTION
Frames: 3
Frame Time: 0.033333
0.000006 104.270477 1.554256 0.000010 0.000003 -0.000113 -0.000005 10.181587 0.131522 0.000001 -0.000003 0.000084 -0.000000 9.893967 -1.470711 0.000001 0.000000 -0.000000 -0.000000 9.220802 -1.370642 0.000000 -0.000000 -0.000000 0.000001 16.740433 -2.049030 0.000000 -0.000000 -0.000000 0.000000 9.617859 1.685014 0.000000 0.000000 0.000000 0.000002 22.037384 7.501101 0.000000 -0.000000 0.000000 -4.569968 11.014880 -2.160881 0.000008 0.000001 -0.000038 -10.592875 -0.524750 -2.231908 74.186072 27.071743 -20.632646 -27.841513 -0.000005 0.000561 -50.703581 109.996160 68.165616 -28.328821 0.000021 0.000020 -0.000325 -0.000044 0.000007 -2.464434 -1.573760 2.682329 -48.070902 -166.863366 -10.214115 -3.215284 -1.872602 1.924648 154.874881 30.574034 -2.661071 -2.654961 -1.527894 1.513083 144.033185 27.351313 -39.379001 -2.018827 -1.151982 1.108057 -0.000002 -0.000004 0.000005 -9.108403 -0.517546 2.260167 108.839905 16.562560 -23.065006 -3.700055 0.000324 0.001536 103.077909 12.246894 -15.354632 -2.850080 0.000371 -0.000247 101.328138 9.038597 -11.016638 -2.772177 -0.000014 -0.000021 -0.000000 -0.000003 -0.000001 -9.532610 0.000271 0.000291 101.686456 17.832927 -21.986855 -3.700074 0.000322 0.004003 98.408676 12.937530 -14.858399 -2.950049 0.000345 -0.001790 97.489428 10.702293 -12.182755 -2.946647 0.000014 -0.000156 -0.000000 0.000000 -0.000000 -9.103733 -0.042778 -1.864856 95.841583 21.960376 -24.203979 -3.379360 0.000301 -0.000790 97.809456 14.970429 -17.154326 -2.889777 0.000339 0.000662 100.085296 9.259934 -11.098067 -2.638798 -0.000016 0.000940 -0.000001 -0.000000 0.000002 -8.076784 -0.486416 -3.806059 76.955236 22.720781 -18.017636 -3.600068 0.000232 -0.003528 81.430943 15.186967 -12.757339 -2.100037 0.000299 -0.005496 86.161231 9.050144 -8.250486 -2.115780 -0.000041 -0.003680 0.000001 0.000001 -0.000005 4.570446 11.014691 -2.160851 -0.000018 0.000010 -0.000021 10.592409 -0.524468 -2.232374 75.939553 -15.196633 11.887314 27.841839 0.000093 -0.000195 110.170063 -69.135298 89.258483 28.328856 -0.000029 0.000020 0.000021 -0.000089 -0.000000 2.465978 -1.576162 2.681911 -40.987941 161.544957 -6.389642 3.217845 -1.871801 1.916380 156.364094 -27.477238 20.659630 2.656079 -1.528634 1.514463 137.884895 -28.435362 43.761019 2.020887 -1.154073 1.115142 0.000004 0.000003 0.000004 9.109373 -0.517823 2.259736 91.891050 -14.089456 14.544809 3.700051 0.000164 -0.000476 90.962117 -13.614791 13.860429 2.850057 0.000204 0.000220 91.049946 -13.194380 13.434869 2.774886 -0.000014 -0.000028 0.000004 0.000001 0.000001 9.533452 0.000195 -0.000091 80.765136 -15.444094 13.150293 3.700043 0.000159 -0.000364 85.422300 -16.480963 15.227005 2.950078 0.000134 -0.000185 82.644579 -19.458425 17.148102 2.952872 -0.000018 0.000065 -0.000003 0.000001 0.000000 9.104586 -0.042861 -1.865231 79.962794 -16.124053 13.548893 3.150052 0.000173 -0.000077 85.451575 -18.459069 17.072334 2.950037 0.000120 -0.000063 82.687547 -19.167085 16.901793 2.644320 0.000028 0.000057 -0.000002 -0.000000 -0.000001 8.077847 -0.486760 -3.806401 67.767450 -20.465634 14.247338 3.599996 0.000145 0.014572 67.610219 -16.663128 11.563529 2.100045 0.000102 0.007557 67.297567 -14.967214 10.333944 2.125509 -0.000015 0.007508 0.000000 -0.000000 -0.000002 -8.207786 -6.751667 -1.599560 -0.077001 -0.000003 0.000080 -0.000002 -44.370110 0.345938 0.153719 -0.000000 -0.000000 0.000000 -44.423679 -3.043532 -0.076700 0.000000 -0.000002 -0.000006 -8.728667 10.710559 -0.000009 -0.000000 -0.000000 -0.000001 -0.000679 9.278123 0.000000 -0.000000 -0.000000 8.207792 -6.751710 -1.599556 -0.074518 -0.000003 0.000081 -0.000002 -44.370014 0.346960 0.148822 0.000002 0.000000 -0.000001 -44.423664 -3.044403 -0.074314 0.000000 -0.000002 -0.000004 -8.728671 10.710558 0.000007 -0.000000 -0.000000 0.000000 -0.000680 9.278137 -0.000000 0.000000 -0.000001 
0.000006 104.270477 1.554256 0.000010 0.000003 -0.000113 -0.000005 10.181587 0.131522 0.000001 -0.000003 0.000084 -0.000000 9.893967 -1.470711 0.000001 0.000000 -0.000000 -0.000000 9.220802 -1.370642 0.000000 -0.000000 -0.000000 0.000001 16.740433 -2.049030 0.000000 -0.000000 -0.000000 0.000000 9.617859 1.685014 0.000000 0.000000 0.000000 0.000002 22.037384 7.501101 0.000000 -0.000000 0.000000 -4.569968 11.014880 -2.160881 0.000008 0.000001 -0.000038 -10.592860 -0.524794 -2.231850 76.265134 40.329337 -32.162562 -27.841530 0.000002 0.000563 -48.687132 104.332874 60.447365 -28.328825 0.000007 0.000029 -0.000321 -0.000044 0.000006 -2.464426 -1.573721 2.682281 -52.528584 -168.694512 -22.983887 -3.215279 -1.872550 1.924634 150.838417 31.241033 4.672331 -2.654962 -1.527877 1.513072 142.079505 27.975613 -35.652997 -2.018830 -1.152017 1.108060 -0.000003 0.000004 0.000003 -9.108355 -0.517551 2.260159 107.729849 13.370587 -18.301961 -3.700047 0.000345 0.001531 104.065274 10.318757 -13.171043 -2.850076 0.000376 -0.000220 101.784299 8.204890 -10.083359 -2.772162 -0.000016 -0.000018 -0.000000 -0.000001 -0.000001 -9.532574 0.000274 0.000245 99.567451 13.408405 -15.992377 -3.700063 0.000342 0.003983 99.986204 10.387645 -12.251883 -2.950036 0.000326 -0.001801 98.532910 10.125452 -11.739271 -2.946626 -0.000015 -0.000148 0.000000 0.000002 0.000000 -9.103684 -0.042753 -1.864874 94.655521 17.436997 -18.840650 -3.379347 0.000310 -0.000780 100.046186 11.379198 -13.574626 -2.889770 0.000337 0.000682 102.786185 9.208360 -11.576939 -2.638843 -0.000044 0.000937 0.000001 -0.000002 0.000001 -8.076753 -0.486411 -3.806070 77.070707 22.619995 -17.973038 -3.600033 0.000253 -0.003552 79.695269 12.566508 -10.186958 -2.100026 0.000307 -0.005505 81.823856 7.155556 -6.008392 -2.115769 -0.000040 -0.003679 0.000001 0.000000 -0.000003 4.570446 11.014691 -2.160851 -0.000018 0.000010 -0.000021 10.592473 -0.524463 -2.232407 76.240095 -37.169736 29.560171 27.841831 0.000045 -0.000177 112.496651 -75.240585 98.145188 28.328836 -0.000033 0.000014 0.000025 -0.000089 0.000001 2.465945 -1.576137 2.681916 -45.061927 169.614156 1.854587 3.217849 -1.871827 1.916408 160.254447 -25.241934 29.781080 2.656091 -1.528657 1.514478 135.462759 -28.995686 54.627457 2.020906 -1.154082 1.115148 0.000001 0.000001 0.000002 9.109369 -0.517840 2.259743 93.043036 -16.066203 16.917578 3.700048 0.000178 -0.000476 90.881732 -10.501874 10.680497 2.850034 0.000221 0.000196 89.728981 -7.791798 7.753916 2.774885 -0.000031 -0.000025 0.000003 0.000001 0.000001 9.533445 0.000201 -0.000090 86.456985 -17.155656 16.131843 3.700059 0.000180 -0.000396 85.378949 -10.686905 9.859792 2.950053 0.000175 -0.000203 86.365522 -10.841880 10.181392 2.952860 -0.000029 0.000065 -0.000001 -0.000000 -0.000001 9.104576 -0.042861 -1.865241 81.984980 -16.313671 14.202626 3.150038 0.000190 -0.000100 86.194884 -11.856601 11.100843 2.950020 0.000168 -0.000071 88.581468 -11.089843 10.821959 2.644312 0.000030 0.000057 -0.000000 0.000001 -0.000001 8.077827 -0.486751 -3.806415 68.358630 -18.469789 13.019038 3.599983 0.000150 0.014572 69.321974 -15.654444 11.228218 2.100027 0.000152 0.007558 72.827794 -11.844112 9.109964 2.125503 -0.000015 0.007513 0.000000 -0.000002 0.000000 -8.207786 -6.751667 -1.599560 -0.077001 -0.000003 0.000080 -0.000002 -44.370110 0.345938 0.153719 -0.000000 -0.000000 0.000000 -44.423679 -3.043532 -0.076700 0.000000 -0.000002 -0.000006 -8.728667 10.710559 -0.000009 -0.000000 -0.000000 -0.000001 -0.000679 9.278123 0.000000 -0.000000 -0.000000 8.207792 -6.751710 -1.599556 -0.074518 -0.000003 0.000081 -0.000002 -44.370014 0.346960 0.148822 0.000002 0.000000 -0.000001 -44.423664 -3.044403 -0.074314 0.000000 -0.000002 -0.000004 -8.728671 10.710558 0.000007 -0.000000 -0.000000 0.000000 -0.000680 9.278137 -0.000000 0.000000 -0.000001 
0.000006 104.270477 1.554256 0.000010 0.000003 -0.000113 -0.000005 10.181587 0.131522 0.000001 -0.000003 0.000084 -0.000000 9.893967 -1.470711 0.000001 0.000000 -0.000000 -0.000000 9.220802 -1.370642 0.000000 -0.000000 -0.000000 0.000001 16.740433 -2.049030 0.000000 -0.000000 -0.000000 0.000000 9.617859 1.685014 0.000000 0.000000 0.000000 0.000002 22.037384 7.501101 0.000000 -0.000000 0.000000 -4.569968 11.014880 -2.160881 0.000008 0.000001 -0.000038 -10.592844 -0.524812 -2.231807 76.829035 47.064351 -38.103409 -27.841522 -0.000004 0.000539 -47.839663 102.595479 57.937776 -28.328829 0.000009 0.000028 -0.000320 -0.000046 0.000010 -2.464450 -1.573724 2.682306 -53.147194 -170.681182 -25.302808 -3.215284 -1.872607 1.924653 152.827791 30.699272 -0.746969 -2.654947 -1.527894 1.513069 142.326389 27.700336 -39.700437 -2.018816 -1.151997 1.108073 -0.000005 -0.000001 0.000004 -9.108387 -0.517546 2.260165 106.728488 14.038422 -18.863746 -3.700047 0.000323 0.001526 103.624488 11.041620 -13.981854 -2.850090 0.000376 -0.000248 101.623427 8.866231 -10.863587 -2.772154 0.000000 -0.000013 -0.000001 -0.000001 -0.000001 -9.532605 0.000275 0.000257 98.215976 14.770501 -17.186860 -3.700078 0.000325 0.003988 99.411341 11.208016 -13.091939 -2.950046 0.000337 -0.001798 98.851429 10.542353 -12.290377 -2.946618 0.000001 -0.000151 -0.000001 0.000001 0.000000 -9.103720 -0.042758 -1.864857 93.277865 18.777336 -19.814242 -3.379337 0.000280 -0.000781 99.296436 12.008656 -14.135315 -2.889759 0.000328 0.000648 102.766821 9.228239 -11.597770 -2.638811 -0.000015 0.000937 0.000000 -0.000001 0.000001 -8.076783 -0.486415 -3.806039 77.422298 23.193278 -18.550075 -3.600054 0.000254 -0.003552 79.556322 12.914523 -10.451511 -2.100030 0.000301 -0.005521 82.372655 7.350262 -6.236701 -2.115760 -0.000027 -0.003679 -0.000000 -0.000002 -0.000006 4.570446 11.014691 -2.160851 -0.000018 0.000010 -0.000021 10.592502 -0.524475 -2.232420 76.572718 -44.967370 36.184846 27.841846 0.000039 -0.000164 113.885857 -78.035253 102.457557 28.328846 -0.000030 0.000018 0.000019 -0.000087 -0.000002 2.466128 -1.576157 2.681897 -22.710044 157.328435 -43.252880 3.217857 -1.871828 1.916404 158.903490 -24.327145 35.004491 2.656113 -1.528645 1.514459 139.015387 -27.959828 49.566270 2.020887 -1.154073 1.115140 0.000004 0.000004 0.000004 9.109406 -0.517823 2.259749 96.413482 -16.547387 18.465635 3.700056 0.000190 -0.000458 96.044720 -10.573602 11.762819 2.850053 0.000231 0.000201 93.803277 -8.425054 9.000095 2.774887 -0.000017 -0.000024 0.000002 0.000000 0.000000 9.533490 0.000221 -0.000077 88.157313 -16.844015 16.309464 3.700061 0.000168 -0.000378 89.213008 -10.811999 10.662757 2.950051 0.000184 -0.000203 88.904495 -10.665846 10.467789 2.952867 -0.000048 0.000069 0.000002 -0.000002 -0.000000 9.104610 -0.042847 -1.865224 83.945368 -16.664427 15.012232 3.150042 0.000197 -0.000098 86.460735 -12.704069 11.950002 2.950028 0.000169 -0.000087 87.659249 -11.393970 10.942245 2.644312 0.000046 0.000059 0.000001 0.000001 0.000002 8.077867 -0.486754 -3.806401 70.805860 -19.813470 14.593227 3.600000 0.000144 0.014570 69.734339 -17.866728 12.881925 2.100028 0.000154 0.007545 71.389151 -13.501332 10.079233 2.125525 0.000002 0.007519 -0.000001 0.000001 0.000001 -8.207786 -6.751667 -1.599560 -0.077001 -0.000003 0.000080 -0.000002 -44.370110 0.345938 0.153719 -0.000000 -0.000000 0.000000 -44.423679 -3.043532 -0.076700 0.000000 -0.000002 -0.000006 -8.728667 10.710559 -0.000009 -0.000000 -0.000000 -0.000001 -0.000679 9.278123 0.000000 -0.000000 -0.000000 8.207792 -6.751710 -1.599556 -0.074518 -0.000003 0.000081 -0.000002 -44.370014 0.346960 0.148822 0.000002 0.000000 -0.000001 -44.423664 -3.044403 -0.074314 0.000000 -0.000002 -0.000004 -8.728671 10.710558 0.000007 -0.000000 -0.000000 0.000000 -0.000680 9.278137 -0.000000 0.000000 -0.000001 
